<svg width="509" height="75" viewBox="0 0 509 75" fill="none" xmlns="http://www.w3.org/2000/svg">
<path d="M0.8 69.84C3.62 69.84 5.69 69.63 7.01 69.21C8.39 68.79 9.29 68.1 9.71 67.14C10.19 66.18 10.43 64.71 10.43 62.73V9.27C10.43 7.29 10.19 5.82 9.71 4.86C9.29 3.9 8.39 3.21 7.01 2.79C5.69 2.37 3.62 2.16 0.8 2.16V-1.07288e-06H28.79C36.95 -1.07288e-06 43.25 1.74 47.69 5.22C52.13 8.63999 54.35 13.83 54.35 20.79C54.35 25.29 53.36 29.1 51.38 32.22C49.4 35.28 46.76 37.56 43.46 39.06C40.22 40.56 36.65 41.31 32.75 41.31C29.03 41.31 24.95 40.68 20.51 39.42V62.73C20.51 64.71 20.72 66.18 21.14 67.14C21.62 68.1 22.52 68.79 23.84 69.21C25.22 69.63 27.32 69.84 30.14 69.84V72H0.8V69.84ZM29.96 37.53C33.86 37.53 37.04 36.06 39.5 33.12C42.02 30.12 43.28 26.01 43.28 20.79C43.28 15.33 41.87 11.13 39.05 8.19C36.29 5.18999 32.75 3.68999 28.43 3.68999C25.67 3.68999 23.03 4.22999 20.51 5.30999V35.73C23.93 36.93 27.08 37.53 29.96 37.53ZM76.8091 73.8C72.7291 73.8 69.1291 72.69 66.0091 70.47C62.9491 68.25 60.5791 65.22 58.8991 61.38C57.2791 57.48 56.4691 53.1 56.4691 48.24C56.4691 43.38 57.2791 39.03 58.8991 35.19C60.5791 31.29 62.9491 28.23 66.0091 26.01C69.1291 23.79 72.7291 22.68 76.8091 22.68C80.8891 22.68 84.4591 23.79 87.5191 26.01C90.5791 28.23 92.9191 31.29 94.5391 35.19C96.2191 39.03 97.0591 43.38 97.0591 48.24C97.0591 53.1 96.2191 57.48 94.5391 61.38C92.9191 65.22 90.5791 68.25 87.5191 70.47C84.4591 72.69 80.8891 73.8 76.8091 73.8ZM77.9791 70.02C81.1591 70.02 83.5591 68.61 85.1791 65.79C86.7991 62.91 87.6091 58.68 87.6091 53.1C87.6091 51.3 87.5191 49.38 87.3391 47.34C86.7391 40.5 85.4491 35.34 83.4691 31.86C81.4891 28.32 78.8791 26.55 75.6391 26.55C72.4591 26.55 70.0291 27.96 68.3491 30.78C66.7291 33.6 65.9191 37.8 65.9191 43.38C65.9191 45.18 66.0091 47.13 66.1891 49.23C66.7891 56.07 68.0791 61.26 70.0591 64.8C72.0991 68.28 74.7391 70.02 77.9791 70.02ZM103.171 54.81H105.241C105.901 59.31 107.371 63 109.651 65.88C111.991 68.7 114.871 70.11 118.291 70.11C120.151 70.11 121.561 69.6 122.521 68.58C123.481 67.5 123.961 66 123.961 64.08C123.961 62.4 123.571 60.87 122.791 59.49C122.011 58.11 120.991 56.79 119.731 55.53C118.471 54.27 116.521 52.47 113.881 50.13C111.121 47.67 109.081 45.78 107.761 44.46C106.441 43.08 105.331 41.52 104.431 39.78C103.531 38.04 103.081 36.09 103.081 33.93C103.081 30.57 104.161 27.87 106.321 25.83C108.541 23.73 111.391 22.68 114.871 22.68C116.791 22.68 118.351 22.92 119.551 23.4C120.811 23.88 122.041 24.54 123.241 25.38C124.141 25.98 124.771 26.28 125.131 26.28C125.611 26.28 125.911 26.1 126.031 25.74C126.151 25.32 126.211 24.6 126.211 23.58H128.281V38.43H126.211C125.551 34.95 124.231 32.1 122.251 29.88C120.331 27.6 117.991 26.46 115.231 26.46C113.491 26.46 112.201 26.94 111.361 27.9C110.521 28.86 110.101 29.97 110.101 31.23C110.101 33.09 110.761 34.83 112.081 36.45C113.401 38.01 115.681 40.2 118.921 43.02C122.041 45.72 124.411 47.94 126.031 49.68C127.651 51.36 128.881 53.13 129.721 54.99C130.561 56.85 130.981 59.01 130.981 61.47C130.981 65.49 129.781 68.55 127.381 70.65C125.041 72.75 122.101 73.8 118.561 73.8C116.521 73.8 114.751 73.56 113.251 73.08C111.811 72.6 110.431 71.97 109.111 71.19C107.911 70.53 107.101 70.2 106.681 70.2C106.141 70.2 105.751 70.41 105.511 70.83C105.331 71.25 105.241 71.94 105.241 72.9H103.171V54.81ZM163.009 52.2C162.949 57.24 162.619 61.29 162.019 64.35C161.479 67.41 160.429 69.75 158.869 71.37C157.369 72.99 155.239 73.8 152.479 73.8C148.759 73.8 145.939 72.48 144.019 69.84C142.099 67.2 141.139 62.97 141.139 57.15V28.26H134.119V24.48C138.319 24.36 141.349 23.34 143.209 21.42C145.129 19.5 146.299 16.23 146.719 11.61H149.509V24.48H159.949V28.26H149.509V54.27C149.509 59.31 149.839 62.94 150.499 65.16C151.219 67.38 152.719 68.49 154.999 68.49C157.099 68.49 158.599 67.26 159.499 64.8C160.399 62.34 160.879 58.14 160.939 52.2H163.009ZM169.791 44.37H200.841V51.03H169.791V44.37ZM263.845 -1.07288e-06H285.985V2.16C283.165 2.16 281.065 2.37 279.685 2.79C278.365 3.21 277.465 3.9 276.985 4.86C276.565 5.82 276.355 7.29 276.355 9.27V62.73C276.355 64.71 276.565 66.18 276.985 67.14C277.465 68.1 278.365 68.79 279.685 69.21C281.065 69.63 283.165 69.84 285.985 69.84V72H256.645V69.84C259.465 69.84 261.535 69.63 262.855 69.21C264.235 68.79 265.135 68.1 265.555 67.14C266.035 66.18 266.275 64.71 266.275 62.73V5.22H266.005L244.045 74.07H239.545L217.855 6.12H217.585L217.765 62.73C217.765 64.71 217.975 66.18 218.395 67.14C218.875 68.1 219.775 68.79 221.095 69.21C222.475 69.63 224.575 69.84 227.395 69.84V72H204.445V69.84C207.265 69.84 209.335 69.63 210.655 69.21C212.035 68.79 212.935 68.1 213.355 67.14C213.835 66.18 214.075 64.71 214.075 62.73V9.27C214.075 7.29 213.835 5.82 213.355 4.86C212.935 3.9 212.035 3.21 210.655 2.79C209.335 2.37 207.265 2.16 204.445 2.16V-1.07288e-06H227.035L245.305 56.16H245.575L263.845 -1.07288e-06ZM307.876 73.8C303.796 73.8 300.196 72.69 297.076 70.47C294.016 68.25 291.646 65.22 289.966 61.38C288.346 57.48 287.536 53.1 287.536 48.24C287.536 43.38 288.346 39.03 289.966 35.19C291.646 31.29 294.016 28.23 297.076 26.01C300.196 23.79 303.796 22.68 307.876 22.68C311.956 22.68 315.526 23.79 318.586 26.01C321.646 28.23 323.986 31.29 325.606 35.19C327.286 39.03 328.126 43.38 328.126 48.24C328.126 53.1 327.286 57.48 325.606 61.38C323.986 65.22 321.646 68.25 318.586 70.47C315.526 72.69 311.956 73.8 307.876 73.8ZM309.046 70.02C312.226 70.02 314.626 68.61 316.246 65.79C317.866 62.91 318.676 58.68 318.676 53.1C318.676 51.3 318.586 49.38 318.406 47.34C317.806 40.5 316.516 35.34 314.536 31.86C312.556 28.32 309.946 26.55 306.706 26.55C303.526 26.55 301.096 27.96 299.416 30.78C297.796 33.6 296.986 37.8 296.986 43.38C296.986 45.18 297.076 47.13 297.256 49.23C297.856 56.07 299.146 61.26 301.126 64.8C303.166 68.28 305.806 70.02 309.046 70.02ZM359.168 22.68C361.148 22.68 362.738 23.19 363.938 24.21C365.198 25.23 365.828 26.55 365.828 28.17C365.828 29.61 365.408 30.81 364.568 31.77C363.728 32.73 362.558 33.21 361.058 33.21C359.918 33.21 359.018 33 358.358 32.58C357.698 32.16 357.128 31.53 356.648 30.69C356.348 30.15 356.018 29.76 355.658 29.52C355.358 29.28 354.998 29.16 354.578 29.16C353.318 29.16 352.118 29.79 350.978 31.05C349.838 32.31 348.458 34.35 346.838 37.17V62.73C346.838 64.77 347.048 66.27 347.468 67.23C347.948 68.19 348.848 68.88 350.168 69.3C351.488 69.66 353.528 69.84 356.288 69.84V72H331.988V69.84C333.848 69.84 335.228 69.66 336.128 69.3C337.028 68.88 337.628 68.19 337.928 67.23C338.228 66.27 338.378 64.77 338.378 62.73V35.64C338.378 33.36 338.288 31.83 338.108 31.05C337.988 30.27 337.598 29.88 336.938 29.88C336.278 29.88 335.108 30.3 333.428 31.14L332.438 29.25L339.188 25.92L345.578 22.68L346.838 23.94V32.04H347.108C350.588 25.8 354.608 22.68 359.168 22.68ZM397.856 52.2C397.796 57.24 397.466 61.29 396.866 64.35C396.326 67.41 395.276 69.75 393.716 71.37C392.216 72.99 390.086 73.8 387.326 73.8C383.606 73.8 380.786 72.48 378.866 69.84C376.946 67.2 375.986 62.97 375.986 57.15V28.26H368.966V24.48C373.166 24.36 376.196 23.34 378.056 21.42C379.976 19.5 381.146 16.23 381.566 11.61H384.356V24.48H394.796V28.26H384.356V54.27C384.356 59.31 384.686 62.94 385.346 65.16C386.066 67.38 387.566 68.49 389.846 68.49C391.946 68.49 393.446 67.26 394.346 64.8C395.246 62.34 395.726 58.14 395.786 52.2H397.856ZM436.048 53.1C435.148 59.94 433.288 65.1 430.468 68.58C427.648 72.06 424.108 73.8 419.848 73.8C414.748 73.8 410.728 71.55 407.788 67.05C404.848 62.49 403.378 56.34 403.378 48.6C403.378 43.92 404.068 39.6 405.448 35.64C406.828 31.68 408.808 28.53 411.388 26.19C414.028 23.85 417.118 22.68 420.658 22.68C425.638 22.68 429.418 24.81 431.998 29.07C434.638 33.33 435.958 38.88 435.958 45.72H412.108V46.08C412.108 52.38 413.038 57.48 414.898 61.38C416.758 65.22 419.428 67.14 422.908 67.14C428.008 67.14 431.668 62.46 433.888 53.1H436.048ZM420.298 26.46C417.778 26.46 415.858 27.84 414.538 30.6C413.218 33.36 412.438 37.17 412.198 42.03H427.318C427.318 31.65 424.978 26.46 420.298 26.46ZM501.93 62.73C501.93 64.77 502.08 66.27 502.38 67.23C502.68 68.19 503.28 68.88 504.18 69.3C505.08 69.66 506.46 69.84 508.32 69.84V72H487.89V69.84C489.57 69.84 490.8 69.66 491.58 69.3C492.36 68.88 492.87 68.19 493.11 67.23C493.41 66.27 493.56 64.77 493.56 62.73V35.37C493.56 32.97 493.2 31.2 492.48 30.06C491.76 28.92 490.59 28.35 488.97 28.35C485.79 28.35 482.25 30.81 478.35 35.73V62.73C478.35 64.77 478.47 66.27 478.71 67.23C479.01 68.19 479.55 68.88 480.33 69.3C481.11 69.66 482.34 69.84 484.02 69.84V72H464.31V69.84C465.99 69.84 467.22 69.66 468 69.3C468.78 68.88 469.29 68.19 469.53 67.23C469.83 66.27 469.98 64.77 469.98 62.73V35.37C469.98 32.97 469.62 31.2 468.9 30.06C468.18 28.92 467.01 28.35 465.39 28.35C462.09 28.35 458.55 30.81 454.77 35.73V62.73C454.77 64.77 454.89 66.27 455.13 67.23C455.43 68.19 455.94 68.88 456.66 69.3C457.44 69.66 458.67 69.84 460.35 69.84V72H439.92V69.84C441.78 69.84 443.16 69.66 444.06 69.3C444.96 68.88 445.56 68.19 445.86 67.23C446.16 66.27 446.31 64.77 446.31 62.73V35.64C446.31 33.36 446.22 31.83 446.04 31.05C445.92 30.27 445.53 29.88 444.87 29.88C444.21 29.88 443.04 30.3 441.36 31.14L440.37 29.25L447.12 25.92L453.51 22.68L454.77 23.94V31.95H455.04C457.02 29.13 459.09 26.88 461.25 25.2C463.47 23.52 465.96 22.68 468.72 22.68C474.12 22.68 477.24 25.77 478.08 31.95H478.35C482.97 25.77 487.74 22.68 492.66 22.68C495.9 22.68 498.24 23.79 499.68 26.01C501.18 28.17 501.93 31.38 501.93 35.64V62.73Z" fill="black"/>
</svg>
